<svg width="280" height="307" viewBox="0 0 280 307" fill="none" xmlns="http://www.w3.org/2000/svg">
<path d="M139.602 0L209.403 34.8679L139.602 69.7361L69.8008 34.8679L139.602 0Z" fill="#F4EDDB"/>
<path d="M209.402 76.7096L279.203 111.578L209.402 146.446L139.602 111.578L209.402 76.7096Z" fill="#F4EDDB"/>
<path d="M69.8005 118.551L139.601 153.419L69.8005 188.287L0 153.419L69.8005 118.551Z" fill="#F4EDDB"/>
<path d="M139.602 195.261L209.403 230.128L139.602 264.996L69.8008 230.128L139.602 195.261Z" fill="#F4EDDB"/>
<path d="M69.8008 34.8679L139.602 69.736V111.578L209.403 146.445V230.128L139.602 195.261V153.419L69.8008 118.551V34.8679Z" fill="#187770"/>
<path d="M209.402 146.446L279.203 111.578V237.102L139.602 306.838V264.996L209.402 230.129V146.446Z" fill="#86B2A5"/>
<path d="M209.402 34.8679L139.602 69.736V111.578L209.402 76.7096V34.8679Z" fill="#86B2A5"/>
<path d="M139.602 153.419L69.8008 188.287V230.128L139.602 195.26V153.419Z" fill="#86B2A5"/>
<path d="M0 153.419L69.8005 188.287V230.128L139.601 264.996V306.838L0 237.102V153.419Z" fill="#187770"/>
</svg>
