<svg width="39" height="35" viewBox="0 0 39 35" fill="none" xmlns="http://www.w3.org/2000/svg">
<path d="M31.6146 29.1667H25C24.4097 29.1667 23.9153 28.9667 23.5167 28.5667C23.1181 28.1667 22.9181 27.6722 22.9167 27.0833C22.9153 26.4944 23.1153 26 23.5167 25.6C23.9181 25.2 24.4125 25 25 25H31.6146L29.7917 23.1771C29.4097 22.7604 29.2097 22.266 29.1917 21.6937C29.1736 21.1215 29.3736 20.6264 29.7917 20.2083C30.2097 19.7903 30.6958 19.5819 31.25 19.5833C31.8042 19.5847 32.2903 19.7931 32.7083 20.2083L38.125 25.625C38.5417 26.0417 38.75 26.5278 38.75 27.0833C38.75 27.6389 38.5417 28.125 38.125 28.5417L32.7083 33.9583C32.2917 34.375 31.8056 34.5833 31.25 34.5833C30.6944 34.5833 30.2083 34.375 29.7917 33.9583C29.375 33.5417 29.175 33.0472 29.1917 32.475C29.2083 31.9028 29.4083 31.4076 29.7917 30.9896L31.6146 29.1667ZM6.25 29.1667L1.77083 33.6458C1.42361 33.9931 1.04167 34.0799 0.625 33.9062C0.208333 33.7326 0 33.4028 0 32.9167V4.16667C0 3.02083 0.408333 2.04028 1.225 1.225C2.04167 0.409722 3.02222 0.00138889 4.16667 0H29.1667C30.3125 0 31.2937 0.408333 32.1104 1.225C32.9271 2.04167 33.3347 3.02222 33.3333 4.16667V12.5C33.3333 13.0903 33.1333 13.5854 32.7333 13.9854C32.3333 14.3854 31.8389 14.5847 31.25 14.5833C30.6611 14.5819 30.1667 14.3819 29.7667 13.9833C29.3667 13.5847 29.1667 13.0903 29.1667 12.5V4.16667H4.16667V25H16.6667C17.2569 25 17.7521 25.2 18.1521 25.6C18.5521 26 18.7514 26.4944 18.75 27.0833C18.7486 27.6722 18.5486 28.1674 18.15 28.5687C17.7514 28.9701 17.2569 29.1694 16.6667 29.1667H6.25ZM10.4167 12.5H22.9167C23.5069 12.5 24.0021 12.3 24.4021 11.9C24.8021 11.5 25.0014 11.0056 25 10.4167C24.9986 9.82778 24.7986 9.33333 24.4 8.93333C24.0014 8.53333 23.5069 8.33333 22.9167 8.33333H10.4167C9.82639 8.33333 9.33194 8.53333 8.93333 8.93333C8.53472 9.33333 8.33472 9.82778 8.33333 10.4167C8.33194 11.0056 8.53194 11.5007 8.93333 11.9021C9.33472 12.3035 9.82917 12.5028 10.4167 12.5ZM10.4167 20.8333H16.6667C17.2569 20.8333 17.7521 20.6333 18.1521 20.2333C18.5521 19.8333 18.7514 19.3389 18.75 18.75C18.7486 18.1611 18.5486 17.6667 18.15 17.2667C17.7514 16.8667 17.2569 16.6667 16.6667 16.6667H10.4167C9.82639 16.6667 9.33194 16.8667 8.93333 17.2667C8.53472 17.6667 8.33472 18.1611 8.33333 18.75C8.33194 19.3389 8.53194 19.834 8.93333 20.2354C9.33472 20.6368 9.82917 20.8361 10.4167 20.8333Z" fill="white"/>
</svg>
