<svg width="48" height="46" viewBox="0 0 48 46" fill="none" xmlns="http://www.w3.org/2000/svg">
<path d="M41.0683 14.8501L40.5558 16.0292C40.4757 16.2212 40.3406 16.3853 40.1675 16.5006C39.9944 16.616 39.791 16.6776 39.5829 16.6776C39.3749 16.6776 39.1715 16.616 38.9984 16.5006C38.8252 16.3853 38.6901 16.2212 38.61 16.0292L38.0975 14.8501C37.1964 12.7641 35.5462 11.0916 33.4725 10.1626L31.8913 9.4563C31.6994 9.36806 31.5369 9.22666 31.423 9.04886C31.3091 8.87107 31.2485 8.66434 31.2485 8.45318C31.2485 8.24202 31.3091 8.03529 31.423 7.85749C31.5369 7.6797 31.6994 7.5383 31.8913 7.45005L33.385 6.78547C35.5109 5.83001 37.1893 4.09564 38.0746 1.93964L38.6038 0.666722C38.6812 0.469542 38.8162 0.300259 38.9912 0.180941C39.1663 0.0616218 39.3732 -0.00219727 39.585 -0.00219727C39.7968 -0.00219727 40.0038 0.0616218 40.1788 0.180941C40.3538 0.300259 40.4888 0.469542 40.5663 0.666722L41.0933 1.93755C41.9777 4.09396 43.6554 5.82908 45.7808 6.78547L47.2767 7.45214C47.4679 7.54064 47.6299 7.68202 47.7434 7.85958C47.8568 8.03715 47.9172 8.24349 47.9172 8.45422C47.9172 8.66496 47.8568 8.87129 47.7434 9.04886C47.6299 9.22643 47.4679 9.36781 47.2767 9.4563L45.6933 10.1605C43.62 11.0904 41.9706 12.7636 41.0704 14.8501M16.6663 4.16672C20.7135 4.1661 24.6227 5.63819 27.6642 8.30826C30.7058 10.9783 32.6718 14.6639 33.1954 18.6771L37.8829 26.0501C38.1913 26.5355 38.1288 27.2584 37.4142 27.5667L33.3329 29.3126V35.4167C33.3329 36.5218 32.8939 37.5816 32.1125 38.363C31.3311 39.1444 30.2713 39.5834 29.1663 39.5834H25.0017L24.9996 45.8334H6.2496V38.1376C6.2496 35.6792 5.34127 33.3521 3.65793 31.2521C1.69492 28.8011 0.464275 25.8454 0.107768 22.7256C-0.248739 19.6057 0.2834 16.4485 1.64288 13.6179C3.00236 10.7872 5.13386 8.39824 7.79183 6.72612C10.4498 5.054 13.5261 4.1668 16.6663 4.16672ZM16.6663 8.33339C14.3112 8.33329 12.0041 8.99848 10.0106 10.2523C8.01705 11.5062 6.41831 13.2977 5.39851 15.4205C4.3787 17.5433 3.97932 19.911 4.24637 22.2508C4.51341 24.5907 5.43603 26.8075 6.90793 28.6459C9.1871 31.4876 10.4163 34.723 10.4163 38.1376V41.6667H20.8329L20.8371 35.4167H29.1663V26.5667L32.3954 25.1834L29.1808 20.1313L29.0621 19.2105C28.6681 16.2018 27.1932 13.4391 24.9124 11.4377C22.6316 9.43637 19.7007 8.33299 16.6663 8.33339ZM38.5204 35.4021L41.9871 37.7146C44.5019 33.9518 45.8406 29.5259 45.8329 25.0001C45.8315 23.5764 45.7058 22.1876 45.4558 20.8334L41.4079 21.8751C41.5788 22.8931 41.6649 23.9348 41.6663 25.0001C41.6725 28.7027 40.5775 32.3235 38.5204 35.4021Z" fill="white"/>
</svg>
