<svg width="47" height="44" viewBox="0 0 47 44" fill="none" xmlns="http://www.w3.org/2000/svg">
<path fill-rule="evenodd" clip-rule="evenodd" d="M6.25 39.0625C5.8356 39.0625 5.43817 38.8979 5.14515 38.6049C4.85212 38.3118 4.6875 37.9144 4.6875 37.5L4.6875 6.25C4.6875 5.8356 4.85212 5.43817 5.14515 5.14515C5.43817 4.85212 5.8356 4.6875 6.25 4.6875L35.1562 4.6875C35.7779 4.6875 36.374 4.44057 36.8135 4.00103C37.2531 3.56149 37.5 2.96535 37.5 2.34375C37.5 1.72215 37.2531 1.12601 36.8135 0.686469C36.374 0.24693 35.7779 9.26257e-09 35.1562 0L6.25 0C4.5924 0 3.00269 0.65848 1.83058 1.83058C0.65848 3.00269 0 4.5924 0 6.25L0 37.5C0 39.1576 0.65848 40.7473 1.83058 41.9194C3.00269 43.0915 4.5924 43.75 6.25 43.75L37.5 43.75C39.1576 43.75 40.7473 43.0915 41.9194 41.9194C43.0915 40.7473 43.75 39.1576 43.75 37.5V27.3437C43.75 26.7221 43.5031 26.126 43.0635 25.6865C42.624 25.2469 42.0279 25 41.4062 25C40.7846 25 40.1885 25.2469 39.749 25.6865C39.3094 26.126 39.0625 26.7221 39.0625 27.3437V37.5C39.0625 37.9144 38.8979 38.3118 38.6049 38.6049C38.3118 38.8979 37.9144 39.0625 37.5 39.0625L6.25 39.0625ZM46.1875 11.5C46.6015 11.0557 46.8269 10.4681 46.8162 9.86087C46.8055 9.25368 46.5595 8.67435 46.1301 8.24493C45.7007 7.81552 45.1213 7.56954 44.5141 7.55883C43.9069 7.54811 43.3193 7.7735 42.875 8.1875L25.5062 25.5531L19.6531 19.5031C19.4396 19.28 19.184 19.1013 18.9012 18.9772C18.6183 18.8532 18.3137 18.7862 18.0049 18.7803C17.6961 18.7744 17.3892 18.8295 17.1018 18.9426C16.8144 19.0557 16.5521 19.2245 16.3301 19.4392C16.1082 19.654 15.9308 19.9105 15.8083 20.194C15.6858 20.4776 15.6206 20.7825 15.6163 21.0913C15.6121 21.4002 15.6689 21.7068 15.7836 21.9936C15.8982 22.2804 16.0684 22.5417 16.2844 22.7625L23.7938 30.525C24.0098 30.7491 24.2684 30.9279 24.5543 31.051C24.8402 31.1741 25.1478 31.239 25.4591 31.2419C25.7704 31.2448 26.0791 31.1856 26.3673 31.0679C26.6554 30.9502 26.9173 30.7763 27.1375 30.5562L46.1875 11.5Z" fill="white"/>
</svg>
